<svg width="234" height="235" viewBox="0 0 234 235" fill="none" xmlns="http://www.w3.org/2000/svg">
<path d="M220.292 83.9088H220.291C224.65 88.2443 228.107 93.4008 230.46 99.0808C232.812 104.76 234.016 110.85 234 116.997L233.988 118.148C233.862 123.905 232.667 129.593 230.462 134.919C228.109 140.6 224.651 145.757 220.291 150.093L220.292 150.094L150.094 220.293L150.095 220.294C145.759 224.654 140.601 228.11 134.921 230.463C129.241 232.816 123.15 234.018 117.002 234.002L117.003 234.003L117.001 234.002L117 234.003V234.002C110.853 234.017 104.764 232.814 99.0847 230.461C93.4051 228.107 88.248 224.651 83.9127 220.292L40.8977 177.285H47.8617L87.3912 216.81L87.3922 216.811C91.2714 220.711 95.8855 223.803 100.967 225.908C106.05 228.013 111.499 229.089 117 229.074H117.003C122.504 229.09 127.954 228.015 133.037 225.91C138.12 223.805 142.735 220.712 146.614 216.811L146.615 216.81L216.807 146.615L216.808 146.614C220.709 142.735 223.801 138.12 225.906 133.037C228.011 127.954 229.086 122.504 229.07 117.003V117C229.085 111.499 228.01 106.05 225.905 100.967C223.8 95.8855 220.708 91.2713 216.808 87.3922L216.807 87.3912L192.964 63.5454L194.784 58.4008L220.292 83.9088ZM117.214 11.7804C121.815 11.7676 126.373 12.6678 130.624 14.4278C134.875 16.188 138.736 18.7737 141.981 22.0353L176.671 56.723H164.513L164.395 57.0561L122.124 176.619L121.889 177.285H152.752L152.87 176.952L190.491 70.5415L212.186 92.236C215.448 95.4812 218.034 99.3415 219.794 103.592C221.554 107.843 222.455 112.401 222.443 117.001L222.434 117.863C222.339 122.171 221.445 126.426 219.794 130.411C218.034 134.662 215.447 138.521 212.186 141.767L212.187 141.768L141.981 211.969C138.736 215.231 134.875 217.816 130.624 219.577C126.374 221.336 121.817 222.235 117.217 222.223L117.218 222.228C112.616 222.24 108.057 221.339 103.805 219.578C99.5538 217.817 95.6928 215.23 92.4469 211.968V211.967L57.766 177.285H69.4897L69.6079 176.952L111.879 57.39L112.114 56.723H81.2506L81.1324 57.0561L43.6253 163.144L22.2502 141.768V141.767C18.9891 138.521 16.4029 134.662 14.6427 130.411C12.8824 126.16 11.9819 121.602 11.9942 117.001C11.9823 112.401 12.8828 107.844 14.6427 103.593C16.4031 99.3423 18.9895 95.4815 22.2511 92.236L92.445 22.0353C95.6906 18.7736 99.5511 16.1881 103.802 14.4278C108.053 12.6678 112.611 11.7678 117.212 11.7804H117.214ZM116.997 0C123.146 -0.0170432 129.239 1.1865 134.92 3.54006C140.601 5.89353 145.758 9.35068 150.094 13.711L193.106 56.723H186.142L146.615 17.1925L146.614 17.1915C142.735 13.2906 138.121 10.1973 133.038 8.09185C127.955 5.98639 122.504 4.91059 117.003 4.92581H117C111.498 4.91085 106.048 5.98646 100.966 8.09185C95.8827 10.1974 91.2678 13.2905 87.3883 17.1915L17.1915 87.3883C13.2904 91.2677 10.1974 95.8827 8.09185 100.966C5.98644 106.048 4.91065 111.498 4.92581 117V117.003C4.90993 122.504 5.98512 127.954 8.0899 133.037C10.1947 138.12 13.2872 142.735 17.1876 146.614L17.1886 146.615L41.0374 170.462L39.219 175.607L13.7042 150.098C9.34573 145.761 5.89034 140.603 3.53811 134.922C1.18582 129.241 -0.0170437 123.149 0 117C-0.0157974 110.852 1.18781 104.761 3.54104 99.0817C5.74756 93.7562 8.92432 88.8909 12.9054 84.731L13.712 83.9078L83.9058 13.711C88.2413 9.35133 93.3986 5.89448 99.0788 3.54104C104.759 1.18781 110.849 -0.0149063 116.997 0.000976569V0Z" fill="black"/>
</svg>
